<svg width="107" height="51" viewBox="0 0 107 51" fill="none" xmlns="http://www.w3.org/2000/svg">
<path d="M6.31465 38.221L0.88078 50.5322H5.15667L6.13746 48.2382H11.438L12.3923 50.5322H17.042L11.6086 38.221H6.31465ZM7.21139 45.7618L8.82562 41.9328L10.4216 45.7618H7.21139ZM27.2585 44.9155C27.1957 44.8687 27.1303 44.8237 27.0623 44.7805C27.196 44.7454 27.3264 44.708 27.454 44.6672C27.9578 44.5087 28.4147 44.2865 28.8016 44.0121C29.1897 43.7325 29.4922 43.4012 29.6909 43.0382C29.8979 42.6684 30.003 42.2434 30.003 41.7759C30.003 41.1313 29.8353 40.5738 29.5058 40.1184C29.178 39.6622 28.684 39.2735 28.0729 38.9908C27.4738 38.7121 26.7452 38.5106 25.9068 38.3925C25.1011 38.279 24.1936 38.221 23.2104 38.221H17.6635V50.5322H21.9174V45.7218H22.0437C22.509 45.7218 22.897 45.7928 23.2294 45.9394C23.5594 46.0845 23.8123 46.2986 24.004 46.5951L26.575 50.5322H31.5245L28.4008 46.1405C28.0224 45.6072 27.6485 45.2069 27.2585 44.9155ZM25.4083 42.5537C25.2847 42.717 25.1057 42.8568 24.8867 42.9612C24.6462 43.0784 24.3476 43.1684 23.9982 43.2287C23.6293 43.2928 23.2083 43.325 22.7463 43.325H21.9174V40.7333H22.8522C23.826 40.7333 24.5497 40.8394 25.003 41.0489C25.398 41.2313 25.5901 41.5388 25.5901 41.9894C25.5901 42.2072 25.5305 42.392 25.4083 42.5537ZM43.9878 39.683C43.2716 39.1833 42.3682 38.8092 41.303 38.5716C40.2646 38.3391 39.0425 38.221 37.6709 38.221H32.0449V50.5322H36.9422C38.5225 50.5322 39.9049 50.3828 41.0504 50.0882C42.2138 49.7897 43.1855 49.3563 43.9377 48.8006C44.6887 48.246 45.2485 47.5684 45.6004 46.7871C45.9457 46.0221 46.1204 45.1618 46.1204 44.2299C46.1204 43.2141 45.9453 42.323 45.5992 41.5813C45.2456 40.8216 44.7037 40.183 43.9878 39.683ZM40.5097 47.1649C39.7711 47.7345 38.6997 48.0112 37.2341 48.0112H36.2984V40.742H37.4589C38.2791 40.742 38.9676 40.8224 39.5045 40.9813C40.0253 41.1351 40.4282 41.3523 40.7362 41.6448C41.0508 41.9448 41.279 42.3213 41.4139 42.7629C41.5559 43.2302 41.6284 43.7715 41.6284 44.3721C41.6284 45.6532 41.2521 46.5928 40.5097 47.1649ZM56.3675 46.0529C56.3675 46.4773 56.3112 46.8391 56.199 47.1282C56.0947 47.398 55.9411 47.6184 55.7416 47.783C55.5528 47.9401 55.3057 48.0583 55.027 48.1247C54.7119 48.2029 54.3091 48.2422 53.8288 48.2422C53.3208 48.2422 52.9019 48.1971 52.5835 48.1078C52.2911 48.0282 52.0323 47.8988 51.8312 47.7313C51.63 47.5632 51.486 47.3523 51.4027 47.1034C51.31 46.8287 51.2632 46.5055 51.2632 46.1417V38.221H47.0097V46.275C47.0097 46.9405 47.1285 47.5514 47.362 48.0905C47.605 48.6506 48.0058 49.1348 48.5535 49.5287C49.1013 49.9224 49.8183 50.227 50.6848 50.433C51.5269 50.6345 52.5446 50.7365 53.7092 50.7365C54.7504 50.7365 55.706 50.6345 56.548 50.433C57.4092 50.2282 58.1515 49.9175 58.7547 49.5095C59.3583 49.1009 59.8266 48.5865 60.1466 47.9807C60.4613 47.3859 60.6211 46.6894 60.6211 45.9103V38.221H56.3675V46.0529ZM62.7963 40.6977H66.6134V48.0379H62.7963V50.5322H74.7375V48.0379H70.9204V40.6977H74.7375V38.221H62.7963V40.6977ZM86.5749 45.2359L81.8196 38.221H77.0051V50.5322H80.9667V43.3839L85.7473 50.5322H90.5374V38.221H86.5749V45.2359ZM104.308 39.6776C103.066 38.5813 101.204 38.0256 98.7753 38.0256C97.7362 38.0256 96.745 38.1534 95.8292 38.4055C94.9006 38.6609 94.0801 39.0586 93.3899 39.5885C92.706 40.1138 92.1628 40.7894 91.7765 41.596C91.3944 42.3922 91.2006 43.3471 91.2006 44.4345C91.2006 46.4431 91.8162 48.0057 93.0301 49.0799C94.2722 50.1793 96.1339 50.7365 98.5629 50.7365C99.6025 50.7365 100.594 50.6086 101.51 50.3566C102.439 50.1009 103.259 49.7029 103.949 49.1738C104.632 48.6488 105.175 47.9736 105.563 47.1664C105.944 46.3704 106.138 45.4155 106.138 44.3276C106.138 42.3132 105.522 40.7486 104.308 39.6776ZM101.509 46.0744C101.387 46.5287 101.197 46.9118 100.944 47.2132C100.704 47.5003 100.407 47.7106 100.036 47.8557C99.6667 48.0003 99.2067 48.0736 98.6693 48.0736C97.6062 48.0736 96.8651 47.7988 96.4039 47.2342C95.8971 46.6138 95.64 45.6362 95.64 44.3276C95.64 43.7132 95.7038 43.1612 95.8305 42.6879C95.9522 42.2345 96.1435 41.852 96.4002 41.5506C96.6444 41.2624 96.9425 41.0514 97.3114 40.9057C97.6753 40.7618 98.132 40.6888 98.6693 40.6888C99.7408 40.6888 100.484 40.9629 100.941 41.5267C101.444 42.1474 101.699 43.1259 101.699 44.4345C101.699 45.0506 101.635 45.6023 101.509 46.0744ZM99.9929 2.39943H100.748V3.77672H101.283V2.39943H102.044V2.05747H99.9929V2.39943ZM103.907 2.05747L103.39 3.22931L102.856 2.05747H102.158V3.77672H102.661V2.67845L103.161 3.77672H103.62L104.094 2.7069V3.77672H104.595V2.05747H103.907ZM79.2759 35.3267C72.5325 35.3267 66.767 33.7486 61.6929 30.5207C58.5585 28.5273 55.9742 26.0851 53.5966 23.5457C51.2193 26.0851 48.6347 28.5273 45.5006 30.5207C40.0485 33.9888 33.7978 35.5526 26.3945 35.3006C12.2764 35.258 0.80957 27.5247 0.80957 18.0253C0.80957 8.49971 12.3393 0.75 26.5113 0.75C34.2665 0.75 40.7958 2.53132 46.4706 6.1954C49.1965 7.95546 51.4975 9.99713 53.5966 12.1333C55.6956 9.99713 57.9971 7.95546 60.7225 6.1954C66.3973 2.53132 72.9267 0.75 80.6819 0.75C94.8543 0.75 106.384 8.49971 106.384 18.0253C106.384 27.5247 94.9172 35.258 80.7986 35.3006C80.2914 35.318 79.7837 35.3267 79.2759 35.3267ZM58.7597 17.7948C61.5725 20.9624 64.3024 23.9106 67.6278 26.0256C71.3812 28.4132 75.3374 29.3954 80.4517 29.2078L80.6819 29.2034C90.0099 29.2034 97.5991 24.1891 97.5991 18.0253C97.5991 11.8618 90.0099 6.84713 80.6819 6.84713C75.1752 6.84713 70.7341 8.05862 66.7058 10.6595C63.6972 12.6023 61.2131 15.0914 58.7597 17.7948ZM26.5113 6.84713C17.1832 6.84713 9.59402 11.8618 9.59402 18.0253C9.59402 24.1891 17.1832 29.2034 26.5113 29.2034L26.7419 29.2078C31.8565 29.3954 35.812 28.4132 39.5654 26.0256C42.8907 23.9106 45.6211 20.9624 48.4335 17.7948C45.98 15.0914 43.496 12.6023 40.4878 10.6595C36.4591 8.05862 32.018 6.84713 26.5113 6.84713Z" fill="#00979C"/>
<path d="M81.8438 15.8095V12.5032H76.8856V15.8095H72.1224V19.2342H76.8856V22.565H81.8438V19.2342H86.6074V15.8095H81.8438ZM19.3789 15.7681H35.0355V19.3003H19.3789V15.7681Z" fill="#00979C"/>
</svg>
