<svg width="42" height="40" viewBox="0 0 42 40" fill="none" xmlns="http://www.w3.org/2000/svg">
<g clip-path="url(#clip0_2038_6887)">
<path d="M41.3002 20C41.3002 8.9543 32.2116 0 21.0002 0C9.78881 0 0.700195 8.9543 0.700195 20C0.700195 31.0457 9.78881 40 21.0002 40C32.2116 40 41.3002 31.0457 41.3002 20Z" fill="#7289DA"/>
<path d="M31.1812 13.1499C29.3188 11.6819 27.084 10.948 24.7249 10.8257L24.3524 11.1927C26.4631 11.6819 28.3256 12.6605 30.0637 14.0061C27.953 12.9052 25.594 12.1713 23.1108 11.9266C22.3659 11.8043 21.7451 11.8043 21.0001 11.8043C20.2552 11.8043 19.6344 11.8043 18.8894 11.9266C16.4062 12.1713 14.0472 12.9052 11.9365 14.0061C13.6747 12.6605 15.5371 11.6819 17.6478 11.1927L17.2753 10.8257C14.9163 10.948 12.6814 11.6819 10.8191 13.1499C8.70839 17.0643 7.59096 21.4679 7.4668 25.9939C9.32915 27.9511 11.9365 29.1744 14.6681 29.1744C14.6681 29.1744 15.5371 28.1958 16.1579 27.3394C14.5439 26.9725 13.0539 26.1162 12.0607 24.7707C12.9298 25.2599 13.7989 25.7493 14.6681 26.1162C15.7855 26.6055 16.9029 26.8502 18.0203 27.0949C19.0136 27.2171 20.0069 27.3394 21.0001 27.3394C21.9934 27.3394 22.9867 27.2171 23.9799 27.0949C25.0973 26.8502 26.2148 26.6055 27.3322 26.1162C28.2014 25.7493 29.0705 25.2599 29.9396 24.7707C28.9463 26.1162 27.4564 26.9725 25.8424 27.3394C26.4631 28.1958 27.3322 29.1744 27.3322 29.1744C30.0637 29.1744 32.6711 27.9511 34.5335 25.9939C34.4093 21.4679 33.2919 17.0643 31.1812 13.1499ZM16.9029 23.792C15.6613 23.792 14.5439 22.6911 14.5439 21.3456C14.5439 20 15.6613 18.8991 16.9029 18.8991C18.1445 18.8991 19.2619 20 19.2619 21.3456C19.2619 22.6911 18.1445 23.792 16.9029 23.792ZM25.0973 23.792C23.8557 23.792 22.7383 22.6911 22.7383 21.3456C22.7383 20 23.8557 18.8991 25.0973 18.8991C26.3389 18.8991 27.4564 20 27.4564 21.3456C27.4564 22.6911 26.3389 23.792 25.0973 23.792Z" fill="white"/>
</g>
<defs>
<clipPath id="clip0_2038_6887">
<rect width="40.6" height="40" fill="white" transform="translate(0.700195)"/>
</clipPath>
</defs>
</svg>
