<svg width="33" height="32" viewBox="0 0 33 32" fill="none" xmlns="http://www.w3.org/2000/svg">
<path d="M32.2997 16.3554C32.2997 15.0399 32.1907 14.0799 31.955 13.0844H16.626V19.0221H25.6238C25.4424 20.4977 24.4628 22.7199 22.2859 24.2132L22.2554 24.412L27.1021 28.0915L27.4379 28.1244C30.5218 25.3332 32.2997 21.2265 32.2997 16.3554Z" fill="#4285F4"/>
<path d="M16.6263 32C21.0345 32 24.7352 30.5777 27.4382 28.1244L22.2862 24.2132C20.9075 25.1555 19.0571 25.8132 16.6263 25.8132C12.3088 25.8132 8.64438 23.0222 7.33812 19.1644L7.14665 19.1804L2.10692 23.0026L2.04102 23.1821C4.72583 28.4088 10.2407 32 16.6263 32Z" fill="#34A853"/>
<path d="M7.33839 19.1645C6.99372 18.1689 6.79424 17.1022 6.79424 16C6.79424 14.8977 6.99372 13.8311 7.32025 12.8355L7.31112 12.6235L2.20824 8.73987L2.04129 8.81769C0.934742 10.9866 0.299805 13.4222 0.299805 16C0.299805 18.5778 0.934742 21.0133 2.04129 23.1822L7.33839 19.1645Z" fill="#FBBC05"/>
<path d="M16.6263 6.18664C19.6921 6.18664 21.7601 7.48441 22.9393 8.56893L27.547 4.16001C24.7171 1.58223 21.0345 0 16.6263 0C10.2407 0 4.72583 3.59109 2.04102 8.81773L7.31998 12.8356C8.64438 8.97779 12.3088 6.18664 16.6263 6.18664Z" fill="#EB4335"/>
</svg>
