<svg width="41" height="40" viewBox="0 0 41 40" fill="none" xmlns="http://www.w3.org/2000/svg">
<g clip-path="url(#clip0_2038_6880)">
<path d="M10.2953 39.8584C8.72491 39.8412 7.16929 39.5574 5.69674 39.0196C4.62141 38.628 3.64851 38.0046 2.84916 37.1949C2.02513 36.4089 1.39142 35.4502 0.995098 34.3898C0.449686 32.9391 0.162075 31.4066 0.144886 29.8596C0.0242804 27.2878 0 26.5165 0 20C0 13.4835 0.0266686 12.7149 0.143692 10.1412C0.162966 8.59481 0.450931 7.06313 0.995098 5.61255C1.39335 4.55294 2.02616 3.59403 2.84757 2.80549C3.64593 1.99436 4.61929 1.3706 5.69554 0.980392C7.1681 0.442595 8.72371 0.158835 10.2941 0.141569C12.9052 0.0239216 13.6894 0 20.3 0C26.9106 0 27.6944 0.0262745 30.3067 0.141569C31.8767 0.160424 33.4317 0.444135 34.9045 0.980392C35.9802 1.37111 36.9533 1.99466 37.752 2.8051C38.5749 3.59225 39.208 4.55121 39.6049 5.61137C40.1509 7.06214 40.4391 8.59477 40.4567 10.142C40.5761 12.7157 40.6004 13.4863 40.6004 20.0008C40.6004 26.5153 40.5761 27.2859 40.4567 29.8596C40.4378 31.4065 40.1496 32.9388 39.6049 34.3898C39.1928 35.442 38.5617 36.3976 37.7522 37.195C36.9426 37.9924 35.9726 38.6139 34.9045 39.0196C33.4319 39.5575 31.8763 39.8414 30.3059 39.8588C27.696 39.9765 26.9114 40.0004 20.2992 40.0004C13.687 40.0004 12.9048 39.9776 10.2949 39.8588" fill="url(#paint0_radial_2038_6880)"/>
<path d="M10.2953 39.8584C8.72491 39.8412 7.16929 39.5574 5.69674 39.0196C4.62141 38.628 3.64851 38.0046 2.84916 37.1949C2.02513 36.4089 1.39142 35.4502 0.995098 34.3898C0.449686 32.9391 0.162075 31.4066 0.144886 29.8596C0.0242804 27.2878 0 26.5165 0 20C0 13.4835 0.0266686 12.7149 0.143692 10.1412C0.162966 8.59481 0.450931 7.06313 0.995098 5.61255C1.39335 4.55294 2.02616 3.59403 2.84757 2.80549C3.64593 1.99436 4.61929 1.3706 5.69554 0.980392C7.1681 0.442595 8.72371 0.158835 10.2941 0.141569C12.9052 0.0239216 13.6894 0 20.3 0C26.9106 0 27.6944 0.0262745 30.3067 0.141569C31.8767 0.160424 33.4317 0.444135 34.9045 0.980392C35.9802 1.37111 36.9533 1.99466 37.752 2.8051C38.5749 3.59225 39.208 4.55121 39.6049 5.61137C40.1509 7.06214 40.4391 8.59477 40.4567 10.142C40.5761 12.7157 40.6004 13.4863 40.6004 20.0008C40.6004 26.5153 40.5761 27.2859 40.4567 29.8596C40.4378 31.4065 40.1496 32.9388 39.6049 34.3898C39.1928 35.442 38.5617 36.3976 37.7522 37.195C36.9426 37.9924 35.9726 38.6139 34.9045 39.0196C33.4319 39.5575 31.8763 39.8414 30.3059 39.8588C27.696 39.9765 26.9114 40.0004 20.2992 40.0004C13.687 40.0004 12.9048 39.9776 10.2949 39.8588" fill="url(#paint1_radial_2038_6880)"/>
<path d="M15.3158 20.085C15.3159 19.1053 15.6109 18.1477 16.1634 17.3331C16.7159 16.5186 17.5012 15.8838 18.4199 15.509C19.3387 15.1341 20.3496 15.0362 21.3248 15.2274C22.3001 15.4186 23.1959 15.8905 23.899 16.5833C24.602 17.2761 25.0807 18.1588 25.2746 19.1197C25.4685 20.0806 25.3688 21.0766 24.9881 21.9816C24.6075 22.8867 23.9629 23.6602 23.136 24.2044C22.3091 24.7486 21.3371 25.0389 20.3427 25.0388C19.0093 25.0386 17.7307 24.5165 16.788 23.5875C15.8453 22.6586 15.3157 21.3987 15.3158 20.085ZM12.5976 20.085C12.5976 21.5942 13.0519 23.0695 13.9029 24.3244C14.7539 25.5792 15.9635 26.5573 17.3788 27.1348C18.794 27.7123 20.3513 27.8634 21.8536 27.569C23.356 27.2746 24.7361 26.5478 25.8192 25.4807C26.9024 24.4135 27.64 23.0539 27.9389 21.5737C28.2377 20.0935 28.0844 18.5592 27.4982 17.1649C26.9119 15.7706 25.9192 14.5789 24.6456 13.7404C23.3719 12.902 21.8745 12.4545 20.3427 12.4545C19.3256 12.4544 18.3184 12.6517 17.3787 13.0352C16.439 13.4186 15.5852 13.9807 14.866 14.6893C14.1468 15.3979 13.5763 16.2391 13.1871 17.1649C12.7979 18.0907 12.5976 19.083 12.5976 20.085ZM26.5843 12.1521C26.5842 12.5048 26.6902 12.8496 26.8889 13.1429C27.0876 13.4362 27.3702 13.6649 27.7009 13.8C28.0315 13.9351 28.3954 13.9706 28.7465 13.9019C29.0976 13.8333 29.4202 13.6636 29.6734 13.4143C29.9267 13.165 30.0992 12.8474 30.1692 12.5015C30.2391 12.1557 30.2035 11.7971 30.0666 11.4712C29.9298 11.1453 29.6979 10.8668 29.4004 10.6707C29.1028 10.4746 28.753 10.3699 28.395 10.3698C27.9152 10.37 27.4551 10.5578 27.1157 10.892C26.7764 11.2262 26.5855 11.6794 26.5851 12.1521M14.2499 32.1811C13.2934 32.1708 12.3459 31.9983 11.4489 31.6713C10.7983 31.4243 10.2075 31.0458 9.71435 30.5601C9.22124 30.0745 8.8368 29.4926 8.58578 28.8517C8.25372 27.9679 8.07868 27.0344 8.06833 26.0921C7.99509 24.5258 7.98076 24.0552 7.98076 20.087C7.98076 16.1188 7.99668 15.6494 8.06833 14.0815C8.07993 13.1393 8.25493 12.206 8.58578 11.3219C8.83651 10.6808 9.22084 10.0985 9.71397 9.61264C10.2071 9.12679 10.7981 8.74815 11.4489 8.50112C12.3459 8.17398 13.2934 8.00153 14.2499 7.99132C15.8396 7.91916 16.3173 7.90505 20.3435 7.90505C24.3696 7.90505 24.8477 7.92034 26.439 7.99172C27.3954 8.00315 28.3427 8.17556 29.24 8.50151C29.8908 8.74857 30.4818 9.12722 30.9749 9.61306C31.468 10.0989 31.8524 10.6812 32.1031 11.3223C32.4352 12.2061 32.6102 13.1396 32.6206 14.0819C32.6938 15.6505 32.7081 16.1188 32.7081 20.0874C32.7081 24.056 32.6934 24.525 32.6206 26.0929C32.6094 27.0351 32.4344 27.9685 32.1031 28.8525C31.8521 29.4933 31.4677 30.0753 30.9746 30.5609C30.4814 31.0465 29.8906 31.425 29.24 31.6721C28.343 31.9992 27.3955 32.1717 26.439 32.1819C24.8493 32.2541 24.3716 32.2682 20.3435 32.2682C16.3153 32.2682 15.8392 32.2537 14.2499 32.1819M14.1249 5.31564C12.8734 5.33988 11.6351 5.57325 10.4629 6.00582C9.46087 6.38754 8.55083 6.97134 7.79114 7.7198C7.03146 8.46825 6.4389 9.36485 6.05146 10.3521C5.61246 11.507 5.37559 12.7269 5.35092 13.9599C5.27648 15.5443 5.25977 16.0509 5.25977 20.0866C5.25977 24.1223 5.27688 24.6286 5.35092 26.2133C5.37558 27.4463 5.61245 28.6662 6.05146 29.8211C6.43892 30.8084 7.03149 31.7049 7.79117 32.4534C8.55085 33.2018 9.46088 33.7857 10.4629 34.1674C11.6352 34.5998 12.8734 34.8331 14.1249 34.8576C15.7338 34.9298 16.2472 34.9474 20.3435 34.9474C24.4397 34.9474 24.9536 34.9305 26.562 34.8576C27.8135 34.8332 29.0517 34.5999 30.224 34.1674C31.226 33.7857 32.1361 33.2018 32.8957 32.4534C33.6554 31.7049 34.248 30.8084 34.6355 29.8211C35.075 28.6664 35.3119 27.4463 35.336 26.2133C35.4092 24.6278 35.426 24.1223 35.426 20.0866C35.426 16.0509 35.4088 15.5447 35.336 13.9599C35.3114 12.7269 35.0745 11.507 34.6355 10.3521C34.248 9.36504 33.6556 8.46858 32.8961 7.72015C32.1367 6.97171 31.227 6.3878 30.2252 6.00582C29.053 5.57297 27.8148 5.33959 26.5632 5.31564C24.9547 5.24309 24.4409 5.22583 20.3454 5.22583C16.25 5.22583 15.735 5.24269 14.1257 5.31564" fill="white"/>
</g>
<defs>
<radialGradient id="paint0_radial_2038_6880" cx="0" cy="0" r="1" gradientUnits="userSpaceOnUse" gradientTransform="translate(2.62746 39.1239) scale(51.5469 50.7851)">
<stop offset="0.09" stop-color="#FA8F21"/>
<stop offset="0.78" stop-color="#D82D7E"/>
</radialGradient>
<radialGradient id="paint1_radial_2038_6880" cx="0" cy="0" r="1" gradientUnits="userSpaceOnUse" gradientTransform="translate(28.1223 37.8392) scale(45.3617 44.6914)">
<stop offset="0.64" stop-color="#8C3AAA" stop-opacity="0"/>
<stop offset="1" stop-color="#8C3AAA"/>
</radialGradient>
<clipPath id="clip0_2038_6880">
<rect width="40.6" height="40" fill="white"/>
</clipPath>
</defs>
</svg>
