<svg width="205" height="51" viewBox="0 0 205 51" fill="none" xmlns="http://www.w3.org/2000/svg">
<g clip-path="url(#clip0_2038_6953)">
<path d="M150.66 4.11755C150.66 2.12068 152.441 0.5 154.637 0.5H200.494C202.69 0.5 204.471 2.12068 204.471 4.11755V47.3831C204.471 49.3806 202.69 51 200.494 51H154.637C152.441 51 150.66 49.3806 150.66 47.3838V4.11755Z" fill="#006699"/>
<path d="M0.0263672 42.8012H22.483V35.9251H8.15465V9.69418H0.0263672V42.8012ZM33.8526 42.8012V19.9978H25.7251V42.8012H33.8526ZM29.7896 16.8849C32.6233 16.8849 34.3874 15.1337 34.3874 12.9441C34.3349 10.7069 32.6233 9.00537 29.8436 9.00537C27.0631 9.00537 25.245 10.7075 25.245 12.9441C25.245 15.1337 27.0091 16.8849 29.7363 16.8849H29.7896ZM37.626 42.8012H45.7535V30.0662C45.7535 29.3847 45.8061 28.7032 46.0213 28.2177C46.6079 26.856 47.9452 25.4453 50.1909 25.4453C53.1325 25.4453 54.3093 27.5369 54.3093 30.6007V42.8005H62.4355V29.7258C62.4355 22.7212 58.4257 19.462 53.0779 19.462C48.6938 19.462 46.7684 21.7476 45.6988 23.3047H45.7535V19.9978H37.626C37.7332 22.1377 37.626 42.8012 37.626 42.8012ZM73.9017 9.69418H65.7742V42.8012H73.9017V35.4078L75.9329 33.0228L82.2963 42.8012H92.2946L81.6018 28.6456L90.958 19.0156H81.1742C81.1742 19.0156 74.4905 27.6309 73.9017 28.6535V9.69418Z" fill="black"/>
<path d="M114.03 33.2891C114.137 32.7037 114.298 31.5804 114.298 30.3101C114.298 24.4155 111.089 18.4308 102.641 18.4308C93.6046 18.4308 89.4336 25.0957 89.4336 31.1406C89.4336 38.6168 94.5137 43.2854 103.389 43.2854C106.919 43.2854 110.179 42.8006 112.854 41.7787L111.784 36.7729C109.591 37.4511 107.346 37.7909 104.566 37.7909C100.77 37.7909 97.4553 36.3371 97.1876 33.2401L114.03 33.2878V33.2891ZM97.1343 28.1615C97.3481 26.2157 98.7394 23.3445 102.214 23.3445C105.903 23.3445 106.76 26.4097 106.76 28.1615H97.1343ZM134.359 9.69427V21.1549H134.252C133.075 19.5508 130.615 18.4805 127.356 18.4805C121.099 18.4805 115.592 23.1498 115.644 31.1267C115.644 38.5208 120.618 43.3364 126.819 43.3364C130.189 43.3364 133.396 41.9734 135.001 39.3467H135.161L135.482 42.8013H142.7C142.594 41.1958 142.486 38.4234 142.486 35.6993V9.6936H134.358L134.359 9.69427ZM134.359 32.246C134.359 32.8288 134.306 33.4137 134.198 33.8985C133.718 35.9914 131.793 37.4491 129.44 37.4491C126.072 37.4491 123.879 34.9204 123.879 30.932C123.879 27.1873 125.752 24.1711 129.494 24.1711C132.007 24.1711 133.771 25.7759 134.252 27.7694C134.359 28.2085 134.359 28.6953 134.359 29.1325V32.246Z" fill="black"/>
<path d="M166.972 42.7734V19.9699H158.845V42.7734H166.972ZM162.91 16.8571C165.744 16.8571 167.508 15.1059 167.508 12.9176C167.454 10.6797 165.744 8.97754 162.964 8.97754C160.182 8.97754 158.365 10.6797 158.365 12.9176C158.365 15.1059 160.129 16.8571 162.857 16.8571H162.909H162.91ZM171.471 42.7734H179.597V30.0404C179.597 29.3595 179.651 28.6774 179.865 28.1912C180.453 26.8288 181.79 25.4188 184.036 25.4188C186.976 25.4188 188.153 27.5097 188.153 30.5755V42.7734H196.279V29.6986C196.279 22.6947 192.27 19.4355 186.923 19.4355C182.539 19.4355 180.614 21.7204 179.544 23.2769H179.598V19.9706H171.471C171.577 22.1099 171.471 42.7734 171.471 42.7734Z" fill="white"/>
</g>
<defs>
<clipPath id="clip0_2038_6953">
<rect width="204.5" height="50.5" fill="white" transform="translate(0 0.5)"/>
</clipPath>
</defs>
</svg>
