<svg width="41" height="40" viewBox="0 0 41 40" fill="none" xmlns="http://www.w3.org/2000/svg">
<path d="M4.70054 11.1927H4.65149C4.13205 11.2247 3.61151 11.1507 3.12245 10.9753C2.63339 10.8 2.18635 10.527 1.80932 10.1735C1.43229 9.82005 1.13339 9.3937 0.931332 8.92117C0.729277 8.44863 0.628419 7.94008 0.635075 7.42737C0.64173 6.91465 0.755755 6.40881 0.97001 5.94152C1.18426 5.47423 1.49413 5.05555 1.88022 4.7117C2.2663 4.36785 2.72028 4.10623 3.21373 3.94323C3.70718 3.78023 4.22948 3.71935 4.74791 3.76441C5.26735 3.72866 5.78869 3.79901 6.27925 3.97104C6.76981 4.14307 7.21902 4.41308 7.59871 4.76415C7.9784 5.11521 8.2804 5.53976 8.48577 6.01119C8.69114 6.48261 8.79546 6.99075 8.79219 7.50376C8.78892 8.01676 8.67813 8.52357 8.46676 8.99242C8.25539 9.46126 7.94801 9.88204 7.56387 10.2284C7.17973 10.5747 6.72712 10.8391 6.2344 11.0051C5.74169 11.171 5.21949 11.2349 4.70054 11.1927ZM1.34089 16.1927H8.10756V36.1927H1.34089V16.1927ZM25.8701 16.1927C24.7299 16.1958 23.6051 16.4527 22.5799 16.9441C21.5546 17.4356 20.6553 18.1491 19.9492 19.0311V16.1927H13.1826V36.1927H19.9492V27.0261C19.9492 26.142 20.3057 25.2942 20.9402 24.6691C21.5747 24.0439 22.4352 23.6927 23.3326 23.6927C24.2299 23.6927 25.0904 24.0439 25.7249 24.6691C26.3594 25.2942 26.7159 26.142 26.7159 27.0261V36.1927H33.4826V23.6927C33.4826 21.7036 32.6805 19.796 31.2529 18.3894C29.8253 16.9829 27.889 16.1927 25.8701 16.1927Z" fill="#6563FF"/>
</svg>
