<svg width="43" height="42" viewBox="0 0 43 42" fill="none" xmlns="http://www.w3.org/2000/svg">
<g clip-path="url(#clip0_2038_6930)">
<path fill-rule="evenodd" clip-rule="evenodd" d="M0.666992 21.0256C0.666992 32.5959 10.0711 42 21.6427 42C33.2629 42.0007 42.667 32.5966 42.667 21.0263C42.667 9.40538 33.2629 0 21.6427 0C10.0711 0.00065625 0.666992 9.40406 0.666992 21.0256Z" fill="#6357FD"/>
<path d="M21.667 7.4353C27.1034 7.4353 31.5107 11.842 31.5107 17.2791C31.5107 21.6136 25.2521 31.1345 22.7157 34.8154C22.1434 35.6462 21.1906 35.6455 20.619 34.8154C18.0819 31.1345 11.8232 21.6136 11.8232 17.2791C11.8232 11.842 16.2306 7.4353 21.667 7.4353ZM21.667 12.0291C20.2746 12.0291 18.9392 12.5822 17.9547 13.5667C16.9701 14.5513 16.417 15.8867 16.417 17.2791C16.417 18.6714 16.9701 20.0068 17.9547 20.9914C18.9392 21.9759 20.2746 22.5291 21.667 22.5291C23.0594 22.5291 24.3947 21.9759 25.3793 20.9914C26.3639 20.0068 26.917 18.6714 26.917 17.2791C26.917 15.8867 26.3639 14.5513 25.3793 13.5667C24.3947 12.5822 23.0594 12.0291 21.667 12.0291Z" fill="white"/>
</g>
<defs>
<clipPath id="clip0_2038_6930">
<rect width="42" height="42" rx="21" transform="matrix(-1 0 0 1 42.667 0)" fill="white"/>
</clipPath>
</defs>
</svg>
