<svg width="35" height="34" viewBox="0 0 35 34" fill="none" xmlns="http://www.w3.org/2000/svg">
<g clip-path="url(#clip0_2038_6917)">
<path d="M17.666 34.001C27.0548 34.001 34.666 26.3898 34.666 17.001C34.666 7.61214 27.0548 0.000976562 17.666 0.000976562C8.27717 0.000976562 0.666016 7.61214 0.666016 17.001C0.666016 26.3898 8.27717 34.001 17.666 34.001Z" fill="#239FDB"/>
<path d="M20.1138 33.8011C20.425 33.7626 20.735 33.7155 21.0436 33.6599C21.5994 33.5479 22.1493 33.4083 22.6913 33.2414C23.2324 33.0741 23.7649 32.8799 24.2866 32.6595C24.8087 32.438 25.3193 32.1905 25.8166 31.918C26.3141 31.6459 26.7977 31.3492 27.2656 31.0288C27.7335 30.7094 28.1853 30.3668 28.619 30.0022C29.0526 29.637 29.4677 29.2503 29.8626 28.8436C30.2577 28.4367 30.6322 28.0103 30.9846 27.566C31.3366 27.122 31.6661 26.6607 31.9719 26.1838C32.2784 25.7069 32.5607 25.2151 32.818 24.71C33.0751 24.2054 33.3069 23.6882 33.5124 23.1604C33.717 22.6317 33.8951 22.0932 34.0459 21.5467C34.1738 21.0729 34.2812 20.5939 34.3676 20.1109L26.8026 12.5458L26.596 12.7093L25.6676 11.7795H9.67972L17.4696 19.5721C17.3992 19.5485 17.3333 19.5131 17.2748 19.4675L8.53418 12.5406V22.2202L20.1138 33.8011Z" fill="#0B5ECD"/>
<path d="M6.5177 9.77515L17.6843 18.5476L28.8345 9.77515H6.5177ZM4.91699 10.8285V24.2251H30.417V10.8357L18.2501 20.4154C18.089 20.5416 17.8897 20.6103 17.6843 20.6103C17.479 20.6103 17.2796 20.5416 17.1185 20.4154L4.91882 10.8285H4.91699Z" fill="white"/>
</g>
<defs>
<clipPath id="clip0_2038_6917">
<rect x="0.666992" width="34" height="34" rx="17" fill="white"/>
</clipPath>
</defs>
</svg>
