<svg width="205" height="46" viewBox="0 0 205 46" fill="none" xmlns="http://www.w3.org/2000/svg">
<g clip-path="url(#clip0_2038_6958)">
<path d="M205 20.603V16.887H200.534V11.11L200.384 11.158L196.189 12.484L196.107 12.51V16.887H189.485V14.447C189.422 13.5232 189.68 12.6065 190.215 11.863C190.472 11.571 190.79 11.342 191.144 11.1926C191.498 11.0431 191.879 10.977 192.261 10.999C192.932 11.0082 193.593 11.1636 194.202 11.455L194.366 11.531V7.621L194.289 7.592C193.486 7.33649 192.648 7.22091 191.808 7.25C190.583 7.23004 189.373 7.53033 188.29 8.123C187.273 8.68847 186.435 9.54457 185.876 10.589C185.295 11.6992 185.001 12.9452 185.021 14.207V16.887H181.911V20.603H185.021V36.256H189.485V20.603H196.107V30.547C196.107 34.647 197.977 36.72 201.666 36.72C202.304 36.7163 202.939 36.6435 203.561 36.503C204.039 36.4191 204.504 36.267 204.942 36.051L205.001 36.015V32.265L204.819 32.389C204.542 32.5701 204.239 32.7051 203.921 32.789C203.635 32.8804 203.339 32.9325 203.04 32.944C202.692 32.9754 202.341 32.9277 202.013 32.8042C201.685 32.6806 201.387 32.4843 201.14 32.229C200.67 31.4972 200.456 30.6215 200.534 29.747V20.603H205ZM171.94 32.947C171.227 32.9854 170.516 32.8571 169.858 32.5715C169.201 32.286 168.614 31.8506 168.142 31.298C167.163 29.9645 166.679 28.3127 166.777 26.642C166.673 24.9324 167.157 23.2397 168.142 21.862C168.604 21.3053 169.183 20.865 169.835 20.5747C170.487 20.2844 171.194 20.1518 171.903 20.187C172.591 20.1529 173.277 20.279 173.911 20.5559C174.545 20.8329 175.11 21.2536 175.566 21.787C176.544 23.1524 177.018 24.8335 176.903 26.528C177.016 28.2285 176.573 29.9188 175.645 31.328C175.192 31.8774 174.621 32.3097 173.978 32.5905C173.335 32.8713 172.637 32.9927 171.94 32.945M172.138 16.413C170.803 16.3371 169.466 16.5448 168.211 17.0233C166.956 17.5018 165.809 18.2409 164.841 19.195C163.936 20.2164 163.236 21.4139 162.784 22.7175C162.331 24.0212 162.134 25.4049 162.205 26.788C162.141 28.1129 162.335 29.4376 162.778 30.6831C163.22 31.9285 163.9 33.0692 164.778 34.037C165.693 34.9448 166.778 35.6504 167.965 36.1108C169.153 36.5713 170.419 36.7768 171.686 36.715C173.003 36.7818 174.318 36.5657 175.549 36.0803C176.78 35.5949 177.901 34.8508 178.839 33.895C179.737 32.8836 180.432 31.6986 180.885 30.4083C181.337 29.118 181.538 27.7479 181.476 26.377C181.616 23.7018 180.727 21.0777 179.003 19.077C178.099 18.1663 177.023 17.4595 175.841 17.0015C174.659 16.5434 173.398 16.344 172.138 16.416M155.006 16.416C153.15 16.3349 151.323 16.918 149.835 18.067C149.195 18.569 148.679 19.2202 148.328 19.9675C147.978 20.7147 147.804 21.5369 147.82 22.367C147.804 23.1893 147.952 24.0061 148.254 24.767C148.554 25.4679 149.011 26.0849 149.588 26.567C150.419 27.2127 151.331 27.7401 152.298 28.135C153.071 28.4487 153.825 28.8114 154.555 29.221C154.939 29.4281 155.278 29.7151 155.549 30.064C155.748 30.3928 155.844 30.7768 155.825 31.164C155.825 32.464 154.882 33.098 152.941 33.098C152.109 33.0775 151.286 32.922 150.501 32.637C149.608 32.3355 148.765 31.894 148.002 31.328L147.816 31.191V35.632L147.884 35.665C148.643 36.0074 149.436 36.2607 150.25 36.42C151.081 36.6072 151.927 36.7077 152.777 36.72C154.727 36.8252 156.654 36.2392 158.237 35.059C158.888 34.5432 159.411 33.8757 159.765 33.1109C160.118 32.3462 160.291 31.5061 160.27 30.659C160.302 29.4503 159.914 28.2696 159.176 27.331C158.143 26.2226 156.869 25.3845 155.46 24.886C154.511 24.5577 153.618 24.0779 152.813 23.464C152.63 23.2666 152.487 23.0323 152.395 22.7756C152.303 22.5188 152.264 22.2453 152.279 21.972C152.275 21.7024 152.335 21.436 152.453 21.1956C152.571 20.9551 152.744 20.748 152.956 20.592C153.513 20.1945 154.181 19.9995 154.856 20.038C155.623 20.0418 156.386 20.1627 157.118 20.397C157.819 20.6081 158.485 20.927 159.094 21.343L159.276 21.472V17.265L159.206 17.234C158.56 16.9678 157.887 16.7741 157.201 16.656C156.476 16.5093 155.74 16.4307 155.002 16.421M136.183 32.947C135.47 32.9854 134.759 32.8571 134.101 32.5715C133.443 32.286 132.856 31.8506 132.384 31.298C131.407 29.9657 130.923 28.3158 131.021 26.647C130.917 24.9374 131.4 23.2447 132.385 21.867C132.847 21.3101 133.426 20.8697 134.078 20.5794C134.73 20.2891 135.438 20.1566 136.147 20.192C136.834 20.1579 137.52 20.284 138.154 20.5609C138.788 20.8379 139.354 21.2586 139.809 21.792C140.787 23.1574 141.262 24.8385 141.147 26.533C141.26 28.2335 140.817 29.9238 139.889 31.333C139.436 31.8825 138.865 32.3149 138.222 32.5956C137.578 32.8764 136.88 32.9978 136.184 32.95M136.383 16.418C135.047 16.342 133.711 16.5496 132.455 17.0281C131.2 17.5066 130.054 18.2458 129.086 19.2C128.18 20.2213 127.481 21.4187 127.028 22.7224C126.575 24.0261 126.378 25.4098 126.448 26.793C126.384 28.118 126.579 29.4428 127.021 30.6882C127.464 31.9337 128.145 33.0743 129.023 34.042C129.938 34.9498 131.022 35.6555 132.21 36.1159C133.398 36.5763 134.664 36.7819 135.931 36.72C137.247 36.7868 138.562 36.5706 139.794 36.0852C141.025 35.5998 142.145 34.8557 143.084 33.9C143.982 32.8886 144.677 31.7036 145.129 30.4133C145.582 29.123 145.783 27.7529 145.72 26.382C145.861 23.7066 144.972 21.0824 143.246 19.082C142.343 18.1715 141.267 17.4647 140.085 17.0067C138.904 16.5486 137.643 16.3492 136.383 16.421M119.672 20.242V16.887H115.262V36.256H119.672V26.347C119.609 24.8901 119.994 23.45 120.772 22.233C121.083 21.7477 121.508 21.351 122.007 21.0792C122.505 20.8073 123.062 20.6691 123.626 20.677C124.074 20.684 124.52 20.7513 124.952 20.877C125.315 20.9604 125.663 21.1057 125.98 21.307L126.166 21.446V16.854L126.094 16.822C125.541 16.6177 124.954 16.5257 124.367 16.551C123.29 16.54 122.244 16.9273 121.418 17.643C120.645 18.3443 120.061 19.2398 119.721 20.243L119.672 20.242ZM107.365 16.42C105.497 16.3811 103.65 16.8398 102.003 17.752C100.488 18.6131 99.2568 19.9216 98.4662 21.51C97.6328 23.237 97.2161 25.1466 97.2515 27.076C97.2295 28.8158 97.6359 30.5329 98.4323 32.066C99.1882 33.5191 100.334 34.716 101.732 35.513C103.212 36.3362 104.872 36.7532 106.553 36.724C108.406 36.7855 110.242 36.3416 111.877 35.437L111.935 35.403V31.228L111.749 31.368C111.089 31.8625 110.362 32.2537 109.591 32.529C108.915 32.79 108.2 32.9329 107.478 32.952C106.716 32.9903 105.954 32.8622 105.243 32.5758C104.531 32.2894 103.887 31.8513 103.35 31.29C102.281 30.0181 101.735 28.3656 101.828 26.684C101.747 24.9554 102.315 23.2614 103.415 21.956C103.942 21.3737 104.584 20.915 105.298 20.6107C106.011 20.3064 106.78 20.1636 107.551 20.192C109.071 20.2166 110.542 20.7457 111.749 21.701L111.934 21.84V17.44L111.874 17.405C111.231 17.0641 110.544 16.8238 109.833 16.692C109.023 16.5146 108.197 16.4232 107.368 16.419M94.2161 16.886H89.8063V36.256H94.2161V16.887V16.886ZM92.0567 8.635C91.358 8.62353 90.683 8.89694 90.178 9.396C89.9239 9.63688 89.7223 9.93089 89.5866 10.2585C89.4509 10.5861 89.3843 10.9397 89.3911 11.296C89.3834 11.6457 89.4486 11.9931 89.5822 12.3145C89.7158 12.6359 89.9147 12.9239 90.1654 13.159C90.6772 13.6506 91.3542 13.9167 92.0528 13.901C92.7534 13.9154 93.4322 13.65 93.948 13.16C94.202 12.9266 94.404 12.6391 94.5402 12.3173C94.6764 11.9956 94.7435 11.6471 94.7368 11.296C94.7404 10.9452 94.6741 10.5973 94.5421 10.2741C94.41 9.95084 94.2151 9.6591 93.9693 9.417C93.7171 9.16 93.4173 8.95826 93.0878 8.82388C92.7583 8.68951 92.406 8.62526 92.0519 8.635M81.0487 15.457V36.257H85.5495V9.229H79.321L71.4035 29.304L63.7203 9.229H57.2354V36.255H61.4651V15.455H61.6103L69.7233 36.255H72.9174L80.9045 15.455H81.0497L81.0487 15.457Z" fill="#706D6E"/>
<path d="M21.2451 21.63H0.5V0.197021H21.2451V21.63Z" fill="#F1511B"/>
<path d="M44.1504 21.63H23.4053V0.197021H44.1504V21.63Z" fill="#80CC28"/>
<path d="M21.2451 45.3031H0.5V23.8701H21.2451V45.3031Z" fill="#00ADEF"/>
<path d="M44.1504 45.3031H23.4053V23.8701H44.1504V45.3031Z" fill="#FBBC09"/>
</g>
<defs>
<clipPath id="clip0_2038_6958">
<rect width="204.5" height="45.106" fill="white" transform="translate(0.5 0.197021)"/>
</clipPath>
</defs>
</svg>
