<svg width="37" height="36" viewBox="0 0 37 36" fill="none" xmlns="http://www.w3.org/2000/svg">
<g clip-path="url(#clip0_2038_6924)">
<path d="M18.667 36C28.6081 36 36.667 27.9411 36.667 18C36.667 8.05887 28.6081 0 18.667 0C8.72587 0 0.666992 8.05887 0.666992 18C0.666992 27.9411 8.72587 36 18.667 36Z" fill="url(#paint0_linear_2038_6924)"/>
<path fill-rule="evenodd" clip-rule="evenodd" d="M21.4734 22.4859C21.1737 22.6762 20.7986 22.7036 20.4744 22.5588C19.8318 22.2024 18.66 21.3519 17.0346 19.7265C15.4092 18.1011 14.4831 16.851 14.124 16.2165C13.9792 15.8924 14.0066 15.5172 14.1969 15.2175L15.1311 13.5813C15.4659 13.0008 15.5415 12.6336 15.177 12.0693L12.7767 8.39463C12.0936 7.31463 11.7453 7.36323 11.1567 7.63323C8.09491 9.02643 6.89881 10.9974 11.2431 17.8581C12.4149 19.7076 15.9951 23.6226 19.0488 25.6044C25.5882 29.8515 27.7401 28.5744 29.0172 25.6044C29.2872 25.005 29.406 24.6567 28.3773 23.9844L24.6621 21.6219C24.0978 21.2601 23.8224 21.1656 23.2392 21.5031L21.4734 22.4859Z" fill="white"/>
</g>
<defs>
<linearGradient id="paint0_linear_2038_6924" x1="28.8078" y1="43.3521" x2="0.666993" y2="-9" gradientUnits="userSpaceOnUse">
<stop stop-color="#6FA0FC"/>
<stop offset="1" stop-color="#5500FF"/>
</linearGradient>
<clipPath id="clip0_2038_6924">
<rect x="0.666992" width="36" height="36" rx="18" fill="white"/>
</clipPath>
</defs>
</svg>
