<svg width="50" height="51" viewBox="0 0 50 51" fill="none" xmlns="http://www.w3.org/2000/svg">
<g clip-path="url(#clip0_2038_6941)">
<path d="M36.2359 0.500714C36.5523 0.508589 36.893 0.602939 37.2797 0.84893C38.2262 0.554452 39.1445 0.452071 39.9655 1.05168C41.2332 0.919036 41.6451 1.19282 41.9573 1.51247C42.2356 1.50784 44.0396 1.28161 44.867 2.27731C46.9461 2.07888 47.6032 3.2639 46.8586 4.36908C47.2833 4.89935 47.7234 5.4233 46.7304 6.43444C47.0816 6.99745 46.8638 7.60834 46.0363 8.34754C46.2545 9.13925 45.8254 9.69763 45.0554 10.1329C45.1995 11.2162 43.824 11.8461 43.4135 12.0704C43.2558 12.7016 42.9271 13.2973 41.3562 13.6265C41.0971 14.5673 40.1531 14.7297 39.2387 14.9271C42.2604 16.3442 44.8517 18.2085 44.8341 22.7831L45.2768 23.4201C48.7416 25.12 51.8589 30.5836 46.9842 35.0244C46.6658 36.4145 46.1318 37.413 45.6564 38.518C44.9453 42.9709 40.3043 45.056 39.08 45.3026C37.2864 46.4049 35.3759 47.4507 32.7904 48.1835C30.3536 50.2111 27.7134 50.984 25.0588 50.9828C25.0197 50.9828 19.6464 50.2113 17.2092 48.1835C14.6241 47.4507 12.7136 46.4049 10.9196 45.3026C9.69573 45.056 5.0547 42.9709 4.34363 38.518C3.86817 37.413 3.33415 36.4145 3.01565 35.0244C-1.8587 30.5832 1.25835 25.1194 4.723 23.4195L5.16649 22.7825C5.14888 18.2083 7.74013 16.3438 10.7619 14.9264C9.84771 14.7291 8.90331 14.5666 8.64453 13.6259C7.07366 13.2965 6.74482 12.7009 6.58729 12.0698C6.17653 11.8455 4.80128 11.2156 4.94503 10.1323C4.17538 9.69701 3.74606 9.13848 3.96445 8.34693C3.13681 7.60772 2.91918 6.99683 3.27041 6.43367C2.27702 5.42315 2.71782 4.8992 3.14198 4.36892C2.39779 3.26374 3.05451 2.07857 5.13433 2.27716C5.9612 1.28146 7.76502 1.50753 8.04409 1.51216C8.35608 1.19267 8.76798 0.918882 10.0357 1.05153C10.8566 0.451917 11.7746 0.554143 12.7215 0.848775C13.8458 0.133041 14.5896 0.706709 15.4394 0.923669C16.8007 0.564798 17.1121 1.05632 17.7809 1.2566C19.2655 1.0035 19.7166 1.55447 20.4281 2.13602L21.2561 2.12274C23.4952 3.1873 24.6076 5.35505 25.0019 6.46949C25.3962 5.35489 26.5062 3.18715 28.7449 2.12274L29.5727 2.13602C30.2853 1.55447 30.7363 1.0035 32.2208 1.2566C32.8898 1.05632 33.1998 0.564798 34.5623 0.923669C35.12 0.781294 35.633 0.485426 36.2369 0.500559L51.6055 22.2731" fill="black"/>
<path d="M40.6938 5.18418C34.7533 7.65505 31.2998 9.65386 29.4077 11.3562C30.3766 14.4892 35.4313 14.6322 37.2795 14.5443C36.9011 14.4023 36.5853 14.2319 36.4733 13.9705C36.9371 13.7046 38.5814 13.9424 39.7295 13.4222C39.2885 13.3483 39.0822 13.2765 38.876 13.014C39.9605 12.735 41.1289 12.4944 41.816 12.0321C41.4453 12.0358 41.099 12.0991 40.6147 11.8281C41.5861 11.4057 42.6228 11.071 43.4282 10.4253C42.926 10.4155 42.3845 10.4213 42.227 10.2723C43.116 9.82789 43.8664 9.33375 44.4873 8.79312C43.7844 8.86153 43.4876 8.8027 43.3176 8.70387C43.9898 8.14842 44.8404 7.67945 45.246 6.99506C44.7242 7.14022 44.2467 7.19581 43.9025 6.9824C44.1309 6.5667 45.1094 6.32148 45.6729 5.35003C45.1233 5.39311 44.5407 5.4467 44.4241 5.35003C44.6791 4.51184 45.1166 4.04055 45.5458 3.55228C44.3699 3.53823 42.5883 3.55598 42.6689 3.47584L43.3961 2.87654C42.2474 2.627 41.0722 2.91653 40.2189 3.13148C39.8359 2.88766 40.2258 2.57928 40.6932 2.26442C39.7171 2.36958 38.8351 2.55056 38.0377 2.79995C37.6118 2.48972 38.3142 2.17933 38.6542 1.8691C37.1461 2.09981 36.5072 2.42424 35.8723 2.74899C35.4116 2.39274 35.8459 2.08992 36.1567 1.77985C35.0196 2.11957 34.4339 2.55828 33.8173 2.99127C33.6083 2.76366 33.2862 2.59673 33.6751 2.04761C32.8678 2.42301 32.2597 2.86542 31.8099 3.36111C31.3103 3.10446 31.5122 2.75362 31.5096 2.43011C30.6704 2.98077 30.1379 3.56679 29.4862 4.13892C29.3549 4.06171 29.2401 3.80028 29.1384 3.38659C27.1369 4.95317 24.3085 8.89936 28.4115 10.4639C31.9033 8.14055 36.0736 6.45166 40.6951 5.1848L40.6938 5.18418ZM9.1734 5.18418C15.1131 7.65536 18.5667 9.65355 20.4585 11.3562C19.4896 14.4892 14.4352 14.6322 12.5869 14.5443C12.9653 14.4023 13.2812 14.2319 13.3929 13.9705C12.9292 13.7046 11.2848 13.9424 10.1369 13.4222C10.5779 13.3483 10.7841 13.2765 10.9904 13.014C9.90572 12.735 8.73738 12.4944 8.05042 12.0321C8.42117 12.0358 8.76743 12.0991 9.25169 11.8281C8.28011 11.4057 7.24345 11.071 6.43801 10.4253C6.94045 10.4155 7.48194 10.4213 7.63928 10.2723C6.75019 9.82789 5.99988 9.33375 5.37896 8.79312C6.082 8.86153 6.37868 8.8027 6.54864 8.70387C5.87662 8.14842 5.02582 7.67945 4.62023 6.99506C5.14219 7.14022 5.61975 7.19581 5.9639 6.9824C5.73555 6.5667 4.75689 6.32148 4.19358 5.35003C4.74292 5.39311 5.32575 5.4467 5.44232 5.35003C5.18679 4.51153 4.74923 4.04024 4.3201 3.55197C5.49591 3.53792 7.27752 3.55567 7.19694 3.47553L6.46978 2.87607C7.61841 2.62669 8.79365 2.91622 9.64694 3.13118C10.0299 2.88735 9.64024 2.57897 9.17283 2.26411C10.1488 2.36911 11.031 2.55025 11.8282 2.79964C12.2543 2.48941 11.5516 2.17902 11.2117 1.8688C12.7198 2.0995 13.3587 2.42393 13.9938 2.74868C14.4545 2.39243 14.02 2.08962 13.7092 1.77954C14.8463 2.11926 15.432 2.55797 16.0485 2.99096C16.2577 2.76335 16.5797 2.59642 16.1909 2.0473C16.9981 2.4227 17.6062 2.86511 18.056 3.3608C18.5556 3.10415 18.3536 2.75316 18.3563 2.4298C19.1954 2.98046 19.7279 3.56633 20.3797 4.13861C20.511 4.0614 20.6258 3.79997 20.7274 3.38612C22.729 4.95286 25.5574 8.89905 21.4544 10.4636C17.9645 8.13962 13.7943 6.45104 9.17263 5.18418H9.1734Z" fill="#75A928"/>
<path d="M17.7395 37.0872C17.7188 40.0108 20.8879 42.3934 24.8177 42.4086C28.7476 42.4241 31.9503 40.0666 31.9709 37.1429C31.9711 37.1244 31.9711 37.1058 31.9709 37.0872C31.9916 34.1637 28.8227 31.7812 24.8927 31.7657C20.9628 31.7503 17.7604 34.1078 17.7395 37.0314V37.0872ZM28.9725 21.965C26.0241 23.5236 25.4926 27.0561 27.7854 29.8551C30.0783 32.6543 34.3271 33.6602 37.2756 32.1018C40.224 30.5432 40.7553 27.0107 38.4627 24.2117C36.1698 21.4125 31.921 20.4066 28.9725 21.965ZM21.0146 21.6829C23.9629 23.2413 24.4944 26.774 22.2017 29.573C19.9089 32.3721 15.6601 33.378 12.7116 31.8195C9.76321 30.2611 9.23167 26.7286 11.5245 23.9294C13.8172 21.1304 18.066 20.1245 21.0146 21.6829ZM43.7085 24.513C40.5253 23.8246 42.6338 35.1375 45.2239 34.2093C48.073 32.3606 48.9906 26.9465 43.7085 24.513ZM6.92121 24.372C10.1049 23.6837 7.99595 34.9971 5.40585 34.0689C2.55676 32.22 1.63916 26.8053 6.92121 24.372ZM17.737 15.9473C12.2434 15.199 7.67229 17.8322 7.8568 22.638C8.03749 24.4805 19.7609 16.2217 17.737 15.9473ZM32.9155 15.8063C38.4094 15.0579 42.9802 17.6916 42.7957 22.4972C42.615 24.3395 30.8914 16.0807 32.9155 15.8063ZM25.0242 14.6855C28.303 14.6167 31.4497 16.6487 31.4574 17.8274C31.4664 19.2595 28.865 20.7258 25.0018 20.763C21.0569 20.7857 18.5396 19.5893 18.5269 18.1113C18.5124 16.4368 22.1148 14.6598 25.0242 14.6855ZM24.824 44.0531C21.9654 43.9524 18.1296 44.7958 18.1219 45.9149C18.0744 47.0014 21.6007 49.4563 25.0135 49.4089C28.548 49.532 32.0138 47.0732 31.9684 46.2209C32.0215 44.9714 27.6649 43.9958 24.824 44.0531ZM35.3827 37.4215C33.3475 39.3996 32.4196 42.875 34.1181 43.8996C35.725 44.6817 39.6272 44.3596 42.4007 41.145C44.2713 38.4476 44.0303 35.7028 42.7169 34.8964C40.7528 33.9313 37.7183 35.2351 35.3825 37.4215H35.3827ZM14.6726 36.7944C16.8747 38.8752 18.1009 42.6705 16.4946 43.8929C14.9585 44.8426 10.8353 44.7098 7.78962 41.3004C5.57811 39.0105 6.31905 35.1863 7.58233 34.1708C9.45887 32.9999 12.1529 34.4985 14.6726 36.7938V36.7944Z" fill="#BC1142"/>
</g>
<defs>
<clipPath id="clip0_2038_6941">
<rect width="49" height="50.5" fill="white" transform="matrix(-1 0 0 1 49.5 0.5)"/>
</clipPath>
</defs>
</svg>
