<svg width="41" height="40" viewBox="0 0 41 40" fill="none" xmlns="http://www.w3.org/2000/svg">
<g clip-path="url(#clip0_2038_6890)">
<path d="M34.7341 5.81282C30.9174 2.06655 25.8424 0.00228568 20.4354 0C9.29332 0 0.225925 8.89125 0.221465 19.8199C0.220166 23.3132 1.15072 26.7233 2.91946 29.7291L0.0517578 40L10.7674 37.2439C13.7197 38.8233 17.0439 39.6555 20.4267 39.6568H20.4353H20.4354C31.5756 39.6568 40.6444 30.764 40.6491 19.8359C40.651 14.5394 38.5502 9.55935 34.7341 5.81282ZM20.4354 36.3092H20.4288C17.4136 36.3076 14.4567 35.5136 11.8776 34.0124L11.2639 33.6555L4.90498 35.2909L6.60271 29.2117L6.20281 28.5885C4.52089 25.9653 3.63298 22.9339 3.63424 19.8211C3.63794 10.7376 11.1744 3.34778 20.4417 3.34778C24.9295 3.34961 29.1474 5.06544 32.3197 8.17922C35.4917 11.293 37.2374 15.4323 37.2361 19.8345C37.2321 28.9183 29.6954 36.3092 20.4354 36.3092Z" fill="#E0E0E0"/>
<path d="M0.979492 38.8604L3.71621 29.0588C2.02783 26.1902 1.13994 22.9357 1.14101 19.6025C1.14544 9.17333 9.79872 0.688477 20.4309 0.688477C25.5912 0.690762 30.4345 2.66063 34.0759 6.23586C37.7182 9.81107 39.7228 14.5633 39.7207 19.6173C39.7163 30.0468 31.0625 38.5324 20.4317 38.5324C20.4322 38.5324 20.4309 38.5324 20.4317 38.5324H20.4231C17.1948 38.5313 14.0227 37.7364 11.2054 36.2303L0.979492 38.8604Z" fill="url(#paint0_linear_2038_6890)"/>
<path fill-rule="evenodd" clip-rule="evenodd" d="M15.4395 11.4053C15.0656 10.5897 14.6718 10.5734 14.316 10.5591C14.025 10.5469 13.6919 10.5476 13.3592 10.5476C13.0263 10.5476 12.4854 10.6703 12.0279 11.1604C11.5702 11.6504 10.2803 12.8351 10.2803 15.2445C10.2803 17.6542 12.0696 19.9825 12.319 20.3095C12.5686 20.636 15.7729 25.7385 20.8477 27.7015C25.0652 29.3328 25.9235 29.0083 26.8389 28.9267C27.7543 28.8451 29.7928 27.7423 30.2089 26.5987C30.625 25.4553 30.625 24.4752 30.5001 24.2704C30.3753 24.0663 30.0424 23.9439 29.5431 23.699C29.0438 23.4541 26.5892 22.2691 26.1315 22.1059C25.6738 21.9426 25.3409 21.861 25.008 22.3513C24.6751 22.8411 23.7188 23.9439 23.4276 24.2704C23.1363 24.5977 22.845 24.6385 22.3457 24.3936C21.8463 24.1479 20.2383 23.6313 18.3307 21.963C16.8465 20.665 15.8444 19.062 15.5532 18.5717C15.2619 18.0819 15.5219 17.8166 15.7724 17.5725C15.9966 17.3531 16.2717 17.0008 16.5214 16.7148C16.7705 16.4288 16.8538 16.2248 17.0202 15.8982C17.1867 15.5712 17.1034 15.2853 16.9786 15.0404C16.8538 14.7955 15.8835 12.3736 15.4395 11.4053Z" fill="white"/>
<path d="M34.5683 5.74977C30.7955 2.04651 25.7788 0.00598045 20.4338 0.00366211C9.41965 0.00366211 0.45635 8.79284 0.451922 19.596C0.450624 23.0493 1.3705 26.4202 3.11893 29.3916L0.28418 39.5445L10.8768 36.82C13.7953 38.3812 17.0813 39.2039 20.4253 39.2052H20.4337H20.4338C31.4462 39.2052 40.4108 30.4145 40.4155 19.6118C40.4173 14.3762 38.3407 9.4533 34.5683 5.74977ZM20.4338 35.8961H20.4274C17.4467 35.8945 14.5238 35.1096 11.9743 33.6257L11.3676 33.2729L5.08168 34.8894L6.7599 28.8801L6.3646 28.264C4.70198 25.6709 3.82425 22.6743 3.82555 19.5973C3.82918 10.6181 11.2791 3.31307 20.4401 3.31307C24.8764 3.31487 29.0458 5.01101 32.1817 8.08904C35.3174 11.1671 37.0429 15.2588 37.0416 19.6106C37.0377 28.59 29.5875 35.8961 20.4338 35.8961Z" fill="white"/>
</g>
<defs>
<linearGradient id="paint0_linear_2038_6890" x1="20.3501" y1="38.8604" x2="20.3501" y2="0.68854" gradientUnits="userSpaceOnUse">
<stop stop-color="#20B038"/>
<stop offset="1" stop-color="#60D66A"/>
</linearGradient>
<clipPath id="clip0_2038_6890">
<rect width="40.6" height="40" fill="white" transform="translate(0.0498047)"/>
</clipPath>
</defs>
</svg>
