<svg width="41" height="40" viewBox="0 0 41 40" fill="none" xmlns="http://www.w3.org/2000/svg">
<path d="M28.6983 3.47998H12.7425C7.99233 3.47998 4.09473 7.27998 4.09473 12V28.48C4.09473 33.16 7.95173 37 12.7425 37H28.7389C33.4891 37 37.3867 33.2 37.3867 28.48V11.96C37.3461 7.27998 33.4891 3.47998 28.6983 3.47998ZM31.5809 31.32H25.3285C25.2879 31.32 25.2473 31.32 25.2473 31.28L19.4009 22.92H19.3603C17.0055 25.6 14.6913 28.24 12.4177 30.84C12.2959 31 12.1335 31.12 12.0117 31.24C11.9711 31.28 11.9305 31.28 11.8899 31.28H10.1847C10.1441 31.28 10.1035 31.28 10.1441 31.24L18.4671 21.72C18.5077 21.68 18.5077 21.64 18.4671 21.6L10.1847 9.71998V9.67998H16.4777C16.5183 9.67998 16.5183 9.67998 16.5589 9.71998L22.0805 17.6C22.0805 17.6 22.0805 17.6 22.1211 17.6L28.9825 9.71998C29.0231 9.67998 29.0637 9.67998 29.1043 9.67998H30.8095C30.8907 9.67998 30.8907 9.71998 30.8501 9.75998L22.9737 18.76C22.9331 18.8 22.9331 18.84 22.9737 18.88L31.6215 31.28C31.6215 31.28 31.6215 31.32 31.5809 31.32Z" fill="black"/>
<path d="M15.7471 11.1199H13.0269C12.9863 11.1199 12.9863 11.1599 12.9863 11.1999L26.0595 29.8799C26.0595 29.8799 26.0595 29.8799 26.1001 29.8799H28.7797C28.8203 29.8799 28.8203 29.8399 28.8203 29.7999L15.7471 11.1199Z" fill="black"/>
</svg>
